[Header]
FileType HTR
DataType HTRS
FileVersion 1
NumSegments 22
NumFrames 7
DataFrameRate 24
EulerRotationOrder ZYX
CalibrationUnits mm
RotationUnits Degrees
GlobalAxisofGravity Y
BoneLengthAxis Y
ScaleFactor 1.0
[SegmentNames&Hierarchy]
reference	GLOBAL
Hips	reference
Spine	Hips
Spine1	Spine
Neck	Spine1
Head	Neck
LeftShoulder	Spine1
LeftArm	LeftShoulder
LeftForeArm	LeftArm
LeftHand	LeftForeArm
RightShoulder	Spine1
RightArm	RightShoulder
RightForeArm	RightArm
RightHand	RightForeArm
LeftUpLeg	Hips
LeftLeg	LeftUpLeg
LeftFoot	LeftLeg
LeftToeBase	LeftFoot
RightUpLeg	Hips
RightLeg	RightUpLeg
RightFoot	RightLeg
RightToeBase	RightFoot
[BasePosition]
reference	0	0	0	0	0	0	1
Hips	0	0	0	0	0	0	1
Spine	0	0	0	0	-0	90	1
Spine1	0	0	0	0	0	0	1
Neck	0	0	0	-7.352327771	-7.352327771	90	1
Head	0	0	0	0	-0	90	1
LeftShoulder	0	0	0	0	0	0	1
LeftArm	0	0	0	0	0	0	1
LeftForeArm	0	0	0	0	0	0	1
LeftHand	0	0	0	0	0	0	1
RightShoulder	0	0	0	0	-0	180	1
RightArm	0	0	0	0	-0	180	1
RightForeArm	0	0	0	0	-0	180	1
RightHand	0	0	0	0	-0	180	1
LeftUpLeg	0	0	0	0	-0	-90	1
LeftLeg	0	0	0	0	-0	-90	1
LeftFoot	0	0	0	66.57146043	-66.57146043	-90	1
LeftToeBase	0	0	0	0	-90	0	1
RightUpLeg	0	0	0	0	-0	-90	1
RightLeg	0	0	0	0	-0	-90	1
RightFoot	0	0	0	66.57146043	-66.57146043	-90	1
RightToeBase	0	0	0	0	-90	0	1
[reference]
127	0	0	0	0	-0	0	1.0
128	0	0	0	0	-0	0	1.0
129	0	0	0	0	-0	0	1.0
130	0	0	0	0	-0	0	1.0
131	0	0	0	0	-0	0	1.0
132	0	0	0	0	-0	0	1.0
133	0	0	0	0	-0	0	1.0
[Hips]
127	3.940370083	8.523440361	1.489302874	4.088134766	-132.4562988	-0.8149871826	1.0
128	3.769057035	8.528388977	1.496905684	3.986371279	-132.0136871	-0.4874550104	1.0
129	3.582253456	8.525754929	1.504563808	3.360595226	-131.1577454	0.2530252039	1.0
130	3.415549278	8.509117126	1.512328506	3.733304024	-130.12854	0.8166007996	1.0
131	3.342559814	8.376088142	1.515160084	6.041824818	-127.9906921	0.1354596019	1.0
132	3.342559814	8.35089016	1.515160084	8.360710144	-125.9627533	-0.6229074597	1.0
133	3.342559814	8.339223862	1.515160084	8.809249878	-125.969101	-0.07792663574	1.0
[Spine]
127	0	0.7457100153	0	-8.096311569	-1.153694868	-90.90851593	1.0
128	0	0.7457100153	0	-8.187450409	-0.3827402592	-91.15979767	1.0
129	0	0.7457100153	0	-8.110689163	0.6147577763	-91.04135132	1.0
130	0	0.7457100153	0	-8.656547546	2.147367477	-90.88187408	1.0
131	0	0.7457100153	0	-9.889377594	3.006955862	-91.42471313	1.0
132	0	0.7457100153	0	-10.80436897	3.449686527	-92.02274323	1.0
133	0	0.7457100153	0	-10.75187588	4.101030827	-91.99278259	1.0
[Spine1]
127	0	2.140589952	0	4.06788063	-0.4895635843	3.577795982	1.0
128	0	2.140589952	0	3.118949413	-0.1905327886	3.471945763	1.0
129	0	2.140589952	0	2.20745182	0.1690123677	2.982085228	1.0
130	0	2.140589952	0	1.417167068	0.7191899419	1.987674952	1.0
131	0	2.140589952	0	1.973304391	1.022645235	1.073547959	1.0
132	0	2.140589952	0	3.317276955	1.191527724	0.4299095869	1.0
133	0	2.140589952	0	3.43964076	1.413421273	0.4389013946	1.0
[Neck]
127	0	2.32246995	0	-12.1559267	16.02770996	-93.37874603	1.0
128	0	2.32246995	0	-12.16228008	15.76900196	-92.26586914	1.0
129	0	2.32246995	0	-12.45130825	15.1713295	-90.67176056	1.0
130	0	2.32246995	0	-12.63356495	13.68200684	-89.41513062	1.0
131	0	2.32246995	0	-15.26903725	12.22055244	-89.15061951	1.0
132	0	2.32246995	0	-19.40849113	10.998909	-89.07130432	1.0
133	0	2.32246995	0	-22.27965164	10.69707775	-89.46324158	1.0
[Head]
127	0	1.409579992	0.1818799973	-3.438147545	9.368727684	-92.21629333	1.0
128	0	1.409579992	0.1818799973	-2.571866989	9.057675362	-91.91016388	1.0
129	0	1.409579992	0.1818799973	-1.562712431	8.369071007	-91.54039001	1.0
130	0	1.409579992	0.1818799973	-2.008238792	6.670045853	-90.83824158	1.0
131	0	1.409579992	0.1818799973	-2.194797993	5.073705673	-90.3752594	1.0
132	0	1.409579992	0.1818799973	-1.8681916	3.797615528	-90.56356812	1.0
133	0	1.409579992	0.1818799973	-1.108393431	3.515887737	-90.44281769	1.0
[LeftShoulder]
127	0.3668199778	1.946700096	-0.02662999928	-16.92713356	-12.94024658	0.04111116752	1.0
128	0.3668199778	1.946700096	-0.02662999928	-16.68906975	-12.87913322	0.173240751	1.0
129	0.3668199778	1.946700096	-0.02662999928	-16.44011879	-12.75986862	-0.028822219	1.0
130	0.3668199778	1.946700096	-0.02662999928	-16.82501984	-12.9169054	-0.2636125684	1.0
131	0.3668199778	1.946700096	-0.02662999928	-17.57889175	-13.47358036	-0.3223535419	1.0
132	0.3668199778	1.946700096	-0.02662999928	-17.89098358	-14.17992783	0.4309307933	1.0
133	0.3668199778	1.946700096	-0.02662999928	-17.32533646	-14.5898819	0.6417400837	1.0
[LeftArm]
127	1.140689969	0	0	38.97854996	-4.863028526	-65.27222443	1.0
128	1.140689969	0	0	39.38555908	-4.960708618	-65.50579071	1.0
129	1.140689969	0	0	40.20350266	-5.121906757	-65.85870361	1.0
130	1.140689969	0	0	40.96357727	-5.160694599	-66.23816681	1.0
131	1.140689969	0	0	40.20679474	-5.296199322	-66.29434967	1.0
132	1.140689969	0	0	40.18199921	-6.24708271	-66.59738159	1.0
133	1.140689969	0	0	40.24488449	-7.009712219	-65.98355103	1.0
[LeftForeArm]
127	2.749800205	0	0	74.29262543	-142.3860931	-35.57991028	1.0
128	2.749800205	0	0	75.35329437	-142.3231201	-36.60456467	1.0
129	2.749800205	0	0	75.52173615	-142.0101929	-37.29458237	1.0
130	2.749800205	0	0	75.63348389	-141.5467987	-37.54520035	1.0
131	2.749800205	0	0	73.03445435	-140.7481232	-36.32911682	1.0
132	2.749800205	0	0	72.03108215	-140.7132416	-35.53327179	1.0
133	2.749800205	0	0	71.23797607	-140.6949921	-34.54873657	1.0
[LeftHand]
127	2.295179844	0	0	-13.69385052	-20.68882561	7.595324516	1.0
128	2.295179844	0	0	-14.36610889	-20.49583626	8.210523605	1.0
129	2.295179844	0	0	-14.85659313	-20.18470383	8.455352783	1.0
130	2.295179844	0	0	-14.51681137	-20.44908905	8.946027756	1.0
131	2.295179844	0	0	-13.73597431	-20.22082329	8.554685593	1.0
132	2.295179844	0	0	-13.2631321	-19.84407616	8.315486908	1.0
133	2.295179844	0	0	-12.30921078	-19.89042473	8.199831009	1.0
[RightShoulder]
127	-0.3601199985	1.946700096	-0.02662999928	-8.30398941	5.208901882	173.0145264	1.0
128	-0.3601199985	1.946700096	-0.02662999928	-8.162611961	5.481453896	172.9633484	1.0
129	-0.3601199985	1.946700096	-0.02662999928	-8.374528885	5.863305569	172.9808655	1.0
130	-0.3601199985	1.946700096	-0.02662999928	-9.125402451	5.873814583	172.5902557	1.0
131	-0.3601199985	1.946700096	-0.02662999928	-9.082530975	5.531002998	172.6358948	1.0
132	-0.3601199985	1.946700096	-0.02662999928	-8.690080643	5.311821938	172.3883362	1.0
133	-0.3601199985	1.946700096	-0.02662999928	-8.284240723	5.580629826	172.7534027	1.0
[RightArm]
127	-1.140689969	0	0	54.71414185	11.66785145	-106.8847046	1.0
128	-1.140689969	0	0	55.0438385	12.22528648	-106.8678284	1.0
129	-1.140689969	0	0	55.10139847	11.94039154	-106.6452484	1.0
130	-1.140689969	0	0	55.47904587	10.86951542	-105.4946976	1.0
131	-1.140689969	0	0	55.52727509	11.41231537	-104.5901337	1.0
132	-1.140689969	0	0	55.1701355	11.94187927	-103.8414307	1.0
133	-1.140689969	0	0	55.48102188	12.00690174	-104.2694855	1.0
[RightForeArm]
127	-2.749800205	0	0	-113.4040909	42.99167633	26.89749336	1.0
128	-2.749800205	0	0	-112.408493	43.41361618	27.58806419	1.0
129	-2.749800205	0	0	-111.694046	44.44406128	28.57762337	1.0
130	-2.749800205	0	0	-109.7596436	45.15356827	30.32283401	1.0
131	-2.749800205	0	0	-107.2496872	45.18800735	31.78902626	1.0
132	-2.749800205	0	0	-106.330368	44.66348267	31.98061943	1.0
133	-2.749800205	0	0	-106.1276627	43.86572266	31.58506775	1.0
[RightHand]
127	-2.295179844	0	0	1.635753274	19.07628822	165.6558228	1.0
128	-2.295179844	0	0	1.849565983	18.82866287	165.5471039	1.0
129	-2.295179844	0	0	1.918634057	18.87929535	165.0340424	1.0
130	-2.295179844	0	0	1.562701106	19.16043854	165.3370361	1.0
131	-2.295179844	0	0	1.53003931	19.11652756	165.5431519	1.0
132	-2.295179844	0	0	1.416309357	18.95418167	165.4266815	1.0
133	-2.295179844	0	0	1.160540342	19.22575951	165.0975647	1.0
[LeftUpLeg]
127	0.9094099998	0	0	-24.96163177	-1.706496596	100.5715637	1.0
128	0.9094099998	0	0	-21.92784119	-2.413194656	98.98544312	1.0
129	0.9094099998	0	0	-19.34207153	-3.992426872	98.53375244	1.0
130	0.9094099998	0	0	-19.19857407	-1.928261518	97.56519318	1.0
131	0.9094099998	0	0	-22.76479912	1.521522999	94.72319794	1.0
132	0.9094099998	0	0	-26.82387924	0.4480795264	94.6131134	1.0
133	0.9094099998	0	0	-27.77142906	0.5149573088	94.86016846	1.0
[LeftLeg]
127	0	-4.498080254	0	35.87825775	0.2747516334	77.93038177	1.0
128	0	-4.498080254	0	31.65864563	1.763732791	81.73020935	1.0
129	0	-4.498080254	0	28.23203468	4.849891663	84.00415802	1.0
130	0	-4.498080254	0	28.47202682	1.520638227	82.21606445	1.0
131	0	-4.498080254	0	32.97447968	-2.553350687	81.78253937	1.0
132	0	-4.498080254	0	37.91554642	-6.571856499	76.41345215	1.0
133	0	-4.498080254	0	38.04192734	-5.732757568	76.58149719	1.0
[LeftFoot]
127	0	-3.729400158	0	-36.69177246	105.5295258	4.748109818	1.0
128	0	-3.729400158	0	-48.10653305	102.9547272	-7.414812088	1.0
129	0	-3.729400158	0	-67.67840576	102.1751938	-24.817276	1.0
130	0	-3.729400158	0	-73.93573761	104.9490356	-25.00439644	1.0
131	0	-3.729400158	0	-82.74284363	106.358017	-29.49967194	1.0
132	0	-3.729400158	0	-72.82043457	110.4040375	-17.17414284	1.0
133	0	-3.729400158	0	-74.46172333	110.1817932	-18.77206421	1.0
[LeftToeBase]
127	0	-0.5911099911	1.364109993	0	0	0	1.0
128	0	-0.5911099911	1.364109993	0	0	0	1.0
129	0	-0.5911099911	1.364109993	0	0	0	1.0
130	0	-0.5911099911	1.364109993	0	0	0	1.0
131	0	-0.5911099911	1.364109993	0	0	0	1.0
132	0	-0.5911099911	1.364109993	0	0	0	1.0
133	0	-0.5911099911	1.364109993	0	0	0	1.0
[RightUpLeg]
127	-0.9094099998	0	0	4.446318626	-15.39661026	85.14394379	1.0
128	-0.9094099998	0	0	5.884815693	-16.26960754	84.10739136	1.0
129	-0.9094099998	0	0	7.748303413	-17.1733284	83.40862274	1.0
130	-0.9094099998	0	0	8.574455261	-16.65103149	83.63775635	1.0
131	-0.9094099998	0	0	7.567882538	-16.00255203	84.27264404	1.0
132	-0.9094099998	0	0	5.879826546	-15.06860733	85.27166748	1.0
133	-0.9094099998	0	0	4.244337559	-15.55283451	85.96629333	1.0
[RightLeg]
127	0	-4.498080254	0	25.14851761	-1.726536036	83.72891998	1.0
128	0	-4.498080254	0	23.44947243	-2.706106663	83.70293427	1.0
129	0	-4.498080254	0	21.81963348	-1.465426087	84.47106934	1.0
130	0	-4.498080254	0	21.09845352	1.017100453	85.47504425	1.0
131	0	-4.498080254	0	21.52222061	-3.055579662	83.37626648	1.0
132	0	-4.498080254	0	22.90314674	-6.008571148	81.90687561	1.0
133	0	-4.498080254	0	24.37738609	-5.539307594	81.45671844	1.0
[RightFoot]
127	0	-3.729400158	0	64.73402405	50.24010468	108.8177109	1.0
128	0	-3.729400158	0	70.62580872	49.38465881	110.5059967	1.0
129	0	-3.729400158	0	69.20782471	49.64717865	107.8831711	1.0
130	0	-3.729400158	0	60.38146973	48.17560959	101.7884827	1.0
131	0	-3.729400158	0	57.4701767	48.7501564	104.0610962	1.0
132	0	-3.729400158	0	54.79621124	48.39519501	104.4523621	1.0
133	0	-3.729400158	0	52.40609741	51.05406189	102.6814804	1.0
[RightToeBase]
127	0	-0.5911099911	1.364109993	0	0	0	1.0
128	0	-0.5911099911	1.364109993	0	0	0	1.0
129	0	-0.5911099911	1.364109993	0	0	0	1.0
130	0	-0.5911099911	1.364109993	0	0	0	1.0
131	0	-0.5911099911	1.364109993	0	0	0	1.0
132	0	-0.5911099911	1.364109993	0	0	0	1.0
133	0	-0.5911099911	1.364109993	0	0	0	1.0
[EndOfFile]
